# xmcd
#
# Track frame offsets: 
#        150
#        21968
#        45182
#        69772
#        85606
#        105569
#        121191
#        143334
#        161353
#        186255
#        209387
#        233210
#        253347
#        273343
#        303655
#        320649
#        340014
#
# Disc length: 4782 seconds
#
# Revision: 0
# Processed by: cddbd v1.5.2PL0 Copyright (c) Steve Scherf et al.
# Submitted via: ExactAudioCopy v0.95a5
#
DISCID=df12ac11
DTITLE=Various Artist - Blues Now Here!  Box5 CD2
DYEAR=2007
DGENRE=Blues
TTITLE0=Borrowed Time - BOBBY MACK
TTITLE1=Day And Night - BERNIE MARSDEN
TTITLE2=I Don't Mind - ERIC BURDON
TTITLE3=Radio Mojo - JIM SUHLER and MONKEY BEAT
TTITLE4=Ghost - JD and The STRAIGHT SHOT
TTITLE5=Wombat Baby - MONDO HEPTED
TTITLE6=Laugh, I Nearly Died - ROLLING STONES
TTITLE7=The Blues are Back - STORM WARNING
TTITLE8=Quittin' Time - LITTLE CHARLIE and The NIGHTCATS
TTITLE9=Lesson In Love - GUITAR SHORTY
TTITLE10=Where The River Ends - DANNY  BRYANT
TTITLE11=Round Midnight - PRESTON SHANNON
TTITLE12=When U Die U Dead - The BLUES NOTIONS
TTITLE13=If my baby - AMAR SUNDY
TTITLE14=All My Tears Are Dry - GIANFRANCO SEGATTO
TTITLE15=A Taste For Bourbon - MICKY MOODY
TTITLE16=It's all over now baby blue - RUDY ROTTA
EXTD=
EXTT0=
EXTT1=
EXTT2=
EXTT3=
EXTT4=
EXTT5=
EXTT6=
EXTT7=
EXTT8=
EXTT9=
EXTT10=
EXTT11=
EXTT12=
EXTT13=
EXTT14=
EXTT15=
EXTT16=
PLAYORDER=
